# xmcd CD database file
#
# Track frame offsets:
#	150
#	15178
#	29299
#	46892
#	57573
#	70657
#	83201
#	95988
#	114256
#	138788
#	151980
#	168034
#	184169
#	199386
#	213982
#
# Disc length: 3074 seconds
#
# Revision: 0
# Processed by: cddbd v1.5.1PL2 Copyright (c) Steve Scherf et al.
# Submitted via: CDex 1.51
#
DISCID=c20c000f
DTITLE=Various Artist - Jazz klassiekers
DYEAR=2005
DGENRE=Jazz
TTITLE0=nuages - django reinhardt
TTITLE1=makin' whoopee - ella fitzgerald
TTITLE2=april in paris - count basie
TTITLE3=my funny valentine - chet baker
TTITLE4=how deep is the ocean - stan getz
TTITLE5=caravan - nat king cole
TTITLE6=misty - errol garner
TTITLE7=lullaby of birdland - sarah vaughan
TTITLE8=round midnight - miles davis
TTITLE9=i got a woman - ray charles
TTITLE10=jumpin' at the woodside - lester young
TTITLE11=blue moon - billie holiday
TTITLE12=petite fleur - sidney bechet
TTITLE13=when the saints go marchin' in - louis armstrong
TTITLE14=in the mood - glen miller
EXTD=YEAR: 2005
EXTT0=
EXTT1=
EXTT2=
EXTT3=
EXTT4=
EXTT5=
EXTT6=
EXTT7=
EXTT8=
EXTT9=
EXTT10=
EXTT11=
EXTT12=
EXTT13=
EXTT14=
PLAYORDER=
